<mxfile host="65bd71144e">
    <diagram id="9eHoRIiVk86_Q0TAngkl" name="Page-1">
        <mxGraphModel dx="780" dy="863" grid="1" gridSize="10" guides="1" tooltips="1" connect="1" arrows="1" fold="1" page="1" pageScale="1" pageWidth="827" pageHeight="1169" math="0" shadow="0">
            <root>
                <mxCell id="0"/>
                <mxCell id="1" parent="0"/>
                <mxCell id="6" value="Profesor" style="swimlane;whiteSpace=wrap;html=1;" vertex="1" parent="1">
                    <mxGeometry x="40" y="90" width="200" height="200" as="geometry"/>
                </mxCell>
                <mxCell id="9" value="Área de conocimiento" style="text;html=1;align=center;verticalAlign=middle;resizable=0;points=[];autosize=1;strokeColor=none;fillColor=none;" vertex="1" parent="6">
                    <mxGeometry y="110" width="140" height="30" as="geometry"/>
                </mxCell>
                <mxCell id="7" value="NRP" style="text;html=1;align=center;verticalAlign=middle;resizable=0;points=[];autosize=1;strokeColor=none;fillColor=none;" vertex="1" parent="6">
                    <mxGeometry x="5" y="38" width="50" height="30" as="geometry"/>
                </mxCell>
                <mxCell id="8" value="Nombre" style="text;html=1;align=center;verticalAlign=middle;resizable=0;points=[];autosize=1;strokeColor=none;fillColor=none;" vertex="1" parent="6">
                    <mxGeometry y="80" width="70" height="30" as="geometry"/>
                </mxCell>
                <mxCell id="10" value="Categoría" style="text;html=1;align=center;verticalAlign=middle;resizable=0;points=[];autosize=1;strokeColor=none;fillColor=none;" vertex="1" parent="6">
                    <mxGeometry y="150" width="80" height="30" as="geometry"/>
                </mxCell>
                <mxCell id="11" value="Departamento" style="swimlane;whiteSpace=wrap;html=1;" vertex="1" parent="1">
                    <mxGeometry x="50" y="490" width="200" height="90" as="geometry"/>
                </mxCell>
                <mxCell id="12" value="Código departamento" style="text;html=1;align=center;verticalAlign=middle;resizable=0;points=[];autosize=1;strokeColor=none;fillColor=none;" vertex="1" parent="11">
                    <mxGeometry x="5" y="40" width="140" height="30" as="geometry"/>
                </mxCell>
                <mxCell id="79" style="edgeStyle=none;html=1;exitX=1;exitY=0.5;exitDx=0;exitDy=0;entryX=1;entryY=0.5;entryDx=0;entryDy=0;" edge="1" parent="1" source="14" target="75">
                    <mxGeometry relative="1" as="geometry"/>
                </mxCell>
                <mxCell id="14" value="Grupo" style="swimlane;whiteSpace=wrap;html=1;" vertex="1" parent="1">
                    <mxGeometry x="420" y="78" width="200" height="180" as="geometry"/>
                </mxCell>
                <mxCell id="15" value="Código grupo" style="text;html=1;align=center;verticalAlign=middle;resizable=0;points=[];autosize=1;strokeColor=none;fillColor=none;" vertex="1" parent="14">
                    <mxGeometry x="10" y="38" width="100" height="30" as="geometry"/>
                </mxCell>
                <mxCell id="16" value="Máximo alumnos" style="text;html=1;align=center;verticalAlign=middle;resizable=0;points=[];autosize=1;strokeColor=none;fillColor=none;" vertex="1" parent="14">
                    <mxGeometry x="10" y="68" width="110" height="30" as="geometry"/>
                </mxCell>
                <mxCell id="61" value="Tipo" style="text;html=1;align=center;verticalAlign=middle;resizable=0;points=[];autosize=1;strokeColor=none;fillColor=none;" vertex="1" parent="14">
                    <mxGeometry x="10" y="98" width="50" height="30" as="geometry"/>
                </mxCell>
                <mxCell id="18" value="Asignatura" style="swimlane;whiteSpace=wrap;html=1;" vertex="1" parent="1">
                    <mxGeometry x="360" y="500" width="200" height="200" as="geometry"/>
                </mxCell>
                <mxCell id="19" value="Código asignatura" style="text;html=1;align=center;verticalAlign=middle;resizable=0;points=[];autosize=1;strokeColor=none;fillColor=none;" vertex="1" parent="18">
                    <mxGeometry x="6" y="40" width="120" height="30" as="geometry"/>
                </mxCell>
                <mxCell id="21" value="Créditos" style="text;html=1;align=center;verticalAlign=middle;resizable=0;points=[];autosize=1;strokeColor=none;fillColor=none;" vertex="1" parent="18">
                    <mxGeometry x="6" y="100" width="70" height="30" as="geometry"/>
                </mxCell>
                <mxCell id="20" value="Nombre" style="text;html=1;align=center;verticalAlign=middle;resizable=0;points=[];autosize=1;strokeColor=none;fillColor=none;" vertex="1" parent="18">
                    <mxGeometry x="6" y="70" width="70" height="30" as="geometry"/>
                </mxCell>
                <mxCell id="22" value="Carácter" style="text;html=1;align=center;verticalAlign=middle;resizable=0;points=[];autosize=1;strokeColor=none;fillColor=none;" vertex="1" parent="18">
                    <mxGeometry x="6" y="128" width="70" height="30" as="geometry"/>
                </mxCell>
                <mxCell id="23" value="Curso" style="text;html=1;align=center;verticalAlign=middle;resizable=0;points=[];autosize=1;strokeColor=none;fillColor=none;" vertex="1" parent="18">
                    <mxGeometry x="11" y="158" width="60" height="30" as="geometry"/>
                </mxCell>
                <mxCell id="24" value="Alumno" style="swimlane;whiteSpace=wrap;html=1;" vertex="1" parent="1">
                    <mxGeometry x="680" y="370" width="200" height="200" as="geometry"/>
                </mxCell>
                <mxCell id="27" value="Fecha nacimiento" style="text;html=1;align=center;verticalAlign=middle;resizable=0;points=[];autosize=1;strokeColor=none;fillColor=none;" vertex="1" parent="24">
                    <mxGeometry x="14" y="100" width="120" height="30" as="geometry"/>
                </mxCell>
                <mxCell id="25" value="Nombre" style="text;html=1;align=center;verticalAlign=middle;resizable=0;points=[];autosize=1;strokeColor=none;fillColor=none;" vertex="1" parent="24">
                    <mxGeometry x="9" y="40" width="70" height="30" as="geometry"/>
                </mxCell>
                <mxCell id="26" value="DNI" style="text;html=1;align=center;verticalAlign=middle;resizable=0;points=[];autosize=1;strokeColor=none;fillColor=none;" vertex="1" parent="24">
                    <mxGeometry x="14" y="70" width="40" height="30" as="geometry"/>
                </mxCell>
                <mxCell id="28" value="Dirección&amp;nbsp;" style="text;html=1;align=center;verticalAlign=middle;resizable=0;points=[];autosize=1;strokeColor=none;fillColor=none;" vertex="1" parent="24">
                    <mxGeometry x="14" y="130" width="80" height="30" as="geometry"/>
                </mxCell>
                <mxCell id="30" value="Beca" style="text;html=1;align=center;verticalAlign=middle;resizable=0;points=[];autosize=1;strokeColor=none;fillColor=none;" vertex="1" parent="24">
                    <mxGeometry x="20" y="160" width="50" height="30" as="geometry"/>
                </mxCell>
                <mxCell id="31" value="" style="endArrow=classic;startArrow=classic;html=1;exitX=0.46;exitY=-0.011;exitDx=0;exitDy=0;exitPerimeter=0;" edge="1" parent="1">
                    <mxGeometry width="50" height="50" relative="1" as="geometry">
                        <mxPoint x="109.33" y="489.5" as="sourcePoint"/>
                        <mxPoint x="109" y="290" as="targetPoint"/>
                    </mxGeometry>
                </mxCell>
                <mxCell id="32" value="Pertenece" style="rhombus;whiteSpace=wrap;html=1;" vertex="1" parent="1">
                    <mxGeometry x="70" y="360" width="80" height="80" as="geometry"/>
                </mxCell>
                <mxCell id="33" value="1" style="text;html=1;align=center;verticalAlign=middle;resizable=0;points=[];autosize=1;strokeColor=none;fillColor=none;" vertex="1" parent="1">
                    <mxGeometry x="80" y="458" width="30" height="30" as="geometry"/>
                </mxCell>
                <mxCell id="34" value="M" style="text;html=1;align=center;verticalAlign=middle;resizable=0;points=[];autosize=1;strokeColor=none;fillColor=none;" vertex="1" parent="1">
                    <mxGeometry x="80" y="290" width="30" height="30" as="geometry"/>
                </mxCell>
                <mxCell id="36" value="Tiene" style="rhombus;whiteSpace=wrap;html=1;" vertex="1" parent="1">
                    <mxGeometry x="315" y="300" width="80" height="80" as="geometry"/>
                </mxCell>
                <mxCell id="37" value="M" style="text;html=1;align=center;verticalAlign=middle;resizable=0;points=[];autosize=1;strokeColor=none;fillColor=none;" vertex="1" parent="1">
                    <mxGeometry x="390" y="240" width="30" height="30" as="geometry"/>
                </mxCell>
                <mxCell id="38" value="N" style="text;html=1;align=center;verticalAlign=middle;resizable=0;points=[];autosize=1;strokeColor=none;fillColor=none;" vertex="1" parent="1">
                    <mxGeometry x="240" y="198" width="30" height="30" as="geometry"/>
                </mxCell>
                <mxCell id="62" value="Teoría" style="swimlane;fontStyle=0;childLayout=stackLayout;horizontal=1;startSize=30;horizontalStack=0;resizeParent=1;resizeParentMax=0;resizeLast=0;collapsible=1;marginBottom=0;whiteSpace=wrap;html=1;" vertex="1" parent="1">
                    <mxGeometry x="770" y="240" width="140" height="60" as="geometry"/>
                </mxCell>
                <mxCell id="63" value="Horas de clase" style="text;strokeColor=none;fillColor=none;align=left;verticalAlign=middle;spacingLeft=4;spacingRight=4;overflow=hidden;points=[[0,0.5],[1,0.5]];portConstraint=eastwest;rotatable=0;whiteSpace=wrap;html=1;" vertex="1" parent="62">
                    <mxGeometry y="30" width="140" height="30" as="geometry"/>
                </mxCell>
                <mxCell id="67" value="Práctica" style="swimlane;fontStyle=0;childLayout=stackLayout;horizontal=1;startSize=30;horizontalStack=0;resizeParent=1;resizeParentMax=0;resizeLast=0;collapsible=1;marginBottom=0;whiteSpace=wrap;html=1;" vertex="1" parent="1">
                    <mxGeometry x="810" y="90" width="140" height="60" as="geometry"/>
                </mxCell>
                <mxCell id="68" value="Taller utilizado" style="text;strokeColor=none;fillColor=none;align=left;verticalAlign=middle;spacingLeft=4;spacingRight=4;overflow=hidden;points=[[0,0.5],[1,0.5]];portConstraint=eastwest;rotatable=0;whiteSpace=wrap;html=1;" vertex="1" parent="67">
                    <mxGeometry y="30" width="140" height="30" as="geometry"/>
                </mxCell>
                <mxCell id="80" style="edgeStyle=none;html=1;exitX=0;exitY=0.25;exitDx=0;exitDy=0;" edge="1" parent="1" source="75">
                    <mxGeometry relative="1" as="geometry">
                        <mxPoint x="790" y="230" as="targetPoint"/>
                    </mxGeometry>
                </mxCell>
                <mxCell id="81" style="edgeStyle=none;html=1;exitX=0;exitY=0.75;exitDx=0;exitDy=0;entryX=0;entryY=0.5;entryDx=0;entryDy=0;" edge="1" parent="1" source="75" target="68">
                    <mxGeometry relative="1" as="geometry"/>
                </mxCell>
                <mxCell id="75" value="" style="triangle;whiteSpace=wrap;html=1;rotation=-180;" vertex="1" parent="1">
                    <mxGeometry x="667.67" y="148.6" width="67.67" height="52.7" as="geometry"/>
                </mxCell>
                <mxCell id="82" value="Tiene" style="rhombus;whiteSpace=wrap;html=1;" vertex="1" parent="1">
                    <mxGeometry x="480" y="320" width="80" height="80" as="geometry"/>
                </mxCell>
                <mxCell id="86" value="" style="endArrow=classic;startArrow=classic;html=1;" edge="1" parent="1">
                    <mxGeometry width="50" height="50" relative="1" as="geometry">
                        <mxPoint x="199.32999999999998" y="488" as="sourcePoint"/>
                        <mxPoint x="199" y="290" as="targetPoint"/>
                    </mxGeometry>
                </mxCell>
                <mxCell id="87" value="Dirige" style="rhombus;whiteSpace=wrap;html=1;" vertex="1" parent="1">
                    <mxGeometry x="160" y="360" width="80" height="80" as="geometry"/>
                </mxCell>
                <mxCell id="88" value="1 o 0" style="text;html=1;align=center;verticalAlign=middle;resizable=0;points=[];autosize=1;strokeColor=none;fillColor=none;" vertex="1" parent="1">
                    <mxGeometry x="200" y="460" width="50" height="30" as="geometry"/>
                </mxCell>
                <mxCell id="90" value="M" style="text;html=1;align=center;verticalAlign=middle;resizable=0;points=[];autosize=1;strokeColor=none;fillColor=none;" vertex="1" parent="1">
                    <mxGeometry x="470" y="470" width="30" height="30" as="geometry"/>
                </mxCell>
                <mxCell id="91" value="M" style="text;html=1;align=center;verticalAlign=middle;resizable=0;points=[];autosize=1;strokeColor=none;fillColor=none;" vertex="1" parent="1">
                    <mxGeometry x="650" y="430" width="30" height="30" as="geometry"/>
                </mxCell>
                <mxCell id="92" value="N" style="text;html=1;align=center;verticalAlign=middle;resizable=0;points=[];autosize=1;strokeColor=none;fillColor=none;" vertex="1" parent="1">
                    <mxGeometry x="515" y="258" width="30" height="30" as="geometry"/>
                </mxCell>
                <mxCell id="96" value="1" style="text;html=1;align=center;verticalAlign=middle;resizable=0;points=[];autosize=1;strokeColor=none;fillColor=none;" vertex="1" parent="1">
                    <mxGeometry x="200" y="288" width="30" height="30" as="geometry"/>
                </mxCell>
                <mxCell id="97" value="" style="endArrow=none;html=1;entryX=0.5;entryY=1;entryDx=0;entryDy=0;" edge="1" parent="1" target="82">
                    <mxGeometry width="50" height="50" relative="1" as="geometry">
                        <mxPoint x="495" y="500" as="sourcePoint"/>
                        <mxPoint x="545" y="450" as="targetPoint"/>
                    </mxGeometry>
                </mxCell>
                <mxCell id="98" value="" style="endArrow=none;html=1;" edge="1" parent="1" source="82">
                    <mxGeometry width="50" height="50" relative="1" as="geometry">
                        <mxPoint x="550" y="380" as="sourcePoint"/>
                        <mxPoint x="680" y="470" as="targetPoint"/>
                    </mxGeometry>
                </mxCell>
                <mxCell id="100" value="" style="endArrow=none;html=1;exitX=0.5;exitY=0;exitDx=0;exitDy=0;" edge="1" parent="1" source="82">
                    <mxGeometry width="50" height="50" relative="1" as="geometry">
                        <mxPoint x="520" y="310" as="sourcePoint"/>
                        <mxPoint x="520" y="250" as="targetPoint"/>
                    </mxGeometry>
                </mxCell>
                <mxCell id="101" value="" style="endArrow=none;html=1;" edge="1" parent="1">
                    <mxGeometry width="50" height="50" relative="1" as="geometry">
                        <mxPoint x="340" y="318" as="sourcePoint"/>
                        <mxPoint x="240" y="220" as="targetPoint"/>
                    </mxGeometry>
                </mxCell>
                <mxCell id="102" value="" style="endArrow=none;html=1;exitX=1;exitY=0;exitDx=0;exitDy=0;" edge="1" parent="1" source="36">
                    <mxGeometry width="50" height="50" relative="1" as="geometry">
                        <mxPoint x="380" y="318" as="sourcePoint"/>
                        <mxPoint x="430" y="260" as="targetPoint"/>
                    </mxGeometry>
                </mxCell>
                <mxCell id="103" value="" style="endArrow=none;html=1;" edge="1" parent="1" target="36">
                    <mxGeometry width="50" height="50" relative="1" as="geometry">
                        <mxPoint x="400" y="500" as="sourcePoint"/>
                        <mxPoint x="450" y="450" as="targetPoint"/>
                    </mxGeometry>
                </mxCell>
                <mxCell id="104" value="M" style="text;html=1;align=center;verticalAlign=middle;resizable=0;points=[];autosize=1;strokeColor=none;fillColor=none;" vertex="1" parent="1">
                    <mxGeometry x="365" y="470" width="30" height="30" as="geometry"/>
                </mxCell>
            </root>
        </mxGraphModel>
    </diagram>
</mxfile>